<?xml version="1.0" encoding="UTF-8" standalone="no"?>
<!-- Created with Inkscape (http://www.inkscape.org/) -->

<svg
   id="svg2069"
   version="1.1"
   viewBox="0 0 99.972083 70.520546"
   height="70.520546mm"
   width="99.972084mm"
   xmlns="http://www.w3.org/2000/svg"
   xmlns:svg="http://www.w3.org/2000/svg">
  <defs
     id="defs2066" />
  <g
     id="layer1"
     transform="translate(-16.756943,-121.54533)">
    <path
       style="fill:none;stroke:#000000;stroke-width:3.52778;stroke-linecap:butt;stroke-linejoin:miter;stroke-miterlimit:4;stroke-dasharray:none;stroke-opacity:1"
       d="M 18.520833,154.0133 V 121.70833"
       id="path2265" />
    <path
       style="fill:none;stroke:#000000;stroke-width:3.52778;stroke-linecap:butt;stroke-linejoin:miter;stroke-miterlimit:4;stroke-dasharray:none;stroke-opacity:1"
       d="m 18.520833,159.51795 v 32.30497"
       id="path2265-1" />
    <path
       style="fill:none;stroke:#000000;stroke-width:3.52778;stroke-linecap:butt;stroke-linejoin:miter;stroke-miterlimit:4;stroke-dasharray:none;stroke-opacity:1"
       d="m 58.208333,121.70833 v 23.56228"
       id="path2265-10" />
    <path
       style="fill:none;stroke:#000000;stroke-width:3.52778;stroke-linecap:butt;stroke-linejoin:miter;stroke-miterlimit:4;stroke-dasharray:none;stroke-opacity:1"
       d="m 58.208333,149.48958 v 14.55209"
       id="path2265-10-5" />
    <path
       style="fill:none;stroke:#000000;stroke-width:3.52778;stroke-linecap:butt;stroke-linejoin:miter;stroke-miterlimit:4;stroke-dasharray:none;stroke-opacity:1"
       d="m 58.208333,168.26064 v 23.56228"
       id="path2265-10-8" />
    <path
       style="fill:none;stroke:#f3f458;stroke-width:0.27406px;stroke-linecap:butt;stroke-linejoin:miter;stroke-opacity:1"
       d="m 23.97625,152.20637 c 0,0 2.907572,5.16645 0,10.33291"
       id="path3018" />
    <path
       style="fill:none;stroke:#f3f458;stroke-width:0.365406px;stroke-linecap:butt;stroke-linejoin:miter;stroke-opacity:1"
       d="m 26.883822,150.05401 c 0,0 3.876663,6.88845 0,13.77687"
       id="path3018-6" />
    <path
       style="fill:none;stroke:#f3f458;stroke-width:0.487205px;stroke-linecap:butt;stroke-linejoin:miter;stroke-opacity:1"
       d="m 29.500816,147.7579 c 0,0 5.168864,9.18456 0,18.36911"
       id="path3018-6-6" />
    <path
       style="fill:none;stroke:#f3f458;stroke-width:0.649633px;stroke-linecap:butt;stroke-linejoin:miter;stroke-opacity:1"
       d="m 34.529567,144.4244 c 0,0 6.892116,12.24659 0,24.49315"
       id="path3018-62" />
    <path
       style="fill:none;stroke:#f3f458;stroke-width:0.866154px;stroke-linecap:butt;stroke-linejoin:miter;stroke-opacity:1"
       d="m 41.421683,139.32248 c 0,0 9.189249,16.32836 0,32.65669"
       id="path3018-6-8" />
    <path
       style="fill:none;stroke:#f3f458;stroke-width:1.15487px;stroke-linecap:butt;stroke-linejoin:miter;stroke-opacity:1"
       d="m 47.625,133.87977 c 0,0 12.252294,21.77107 0,43.54214"
       id="path3018-6-6-4" />
    <path
       style="fill:none;stroke:#f3f458;stroke-width:0.205545px;stroke-linecap:butt;stroke-linejoin:miter;stroke-opacity:1"
       d="m 62.322175,143.25903 c 0,0 2.180679,3.87485 0,7.74969"
       id="path3018-7" />
    <path
       style="fill:none;stroke:#f3f458;stroke-width:0.274054px;stroke-linecap:butt;stroke-linejoin:miter;stroke-opacity:1"
       d="m 64.502854,141.64476 c 0,0 2.907498,5.16635 0,10.33266"
       id="path3018-6-2" />
    <path
       style="fill:none;stroke:#f3f458;stroke-width:0.365403px;stroke-linecap:butt;stroke-linejoin:miter;stroke-opacity:1"
       d="m 66.465599,139.92269 c 0,0 3.876648,6.88842 0,13.77682"
       id="path3018-6-6-40" />
    <path
       style="fill:none;stroke:#f3f458;stroke-width:0.487224px;stroke-linecap:butt;stroke-linejoin:miter;stroke-opacity:1"
       d="m 70.237163,137.42256 c 0,0 5.169087,9.18494 0,18.36986"
       id="path3018-62-6" />
    <path
       style="fill:none;stroke:#f3f458;stroke-width:0.649616px;stroke-linecap:butt;stroke-linejoin:miter;stroke-opacity:1"
       d="m 75.40625,133.59612 c 0,0 6.891936,12.24627 0,24.49251"
       id="path3018-6-8-2" />
    <path
       style="fill:none;stroke:#f3f458;stroke-width:0.866153px;stroke-linecap:butt;stroke-linejoin:miter;stroke-opacity:1"
       d="m 80.058737,129.51408 c 0,0 9.189218,16.32831 0,32.65661"
       id="path3018-6-6-4-9" />
    <path
       style="fill:none;stroke:#f3f458;stroke-width:0.205545px;stroke-linecap:butt;stroke-linejoin:miter;stroke-opacity:1"
       d="m 62.961355,162.32792 c 0,0 2.180679,3.87485 0,7.74969"
       id="path3018-7-9" />
    <path
       style="fill:none;stroke:#f3f458;stroke-width:0.274054px;stroke-linecap:butt;stroke-linejoin:miter;stroke-opacity:1"
       d="m 65.142034,160.71365 c 0,0 2.907498,5.16635 0,10.33266"
       id="path3018-6-2-0" />
    <path
       style="fill:none;stroke:#f3f458;stroke-width:0.365403px;stroke-linecap:butt;stroke-linejoin:miter;stroke-opacity:1"
       d="m 67.104779,158.99158 c 0,0 3.876648,6.88842 0,13.77682"
       id="path3018-6-6-40-8" />
    <path
       style="fill:none;stroke:#f3f458;stroke-width:0.487224px;stroke-linecap:butt;stroke-linejoin:miter;stroke-opacity:1"
       d="m 70.876343,156.49145 c 0,0 5.169087,9.18494 0,18.36986"
       id="path3018-62-6-1" />
    <path
       style="fill:none;stroke:#f3f458;stroke-width:0.649616px;stroke-linecap:butt;stroke-linejoin:miter;stroke-opacity:1"
       d="m 76.04543,152.66501 c 0,0 6.891936,12.24627 0,24.49251"
       id="path3018-6-8-2-3" />
    <path
       style="fill:none;stroke:#f3f458;stroke-width:0.866153px;stroke-linecap:butt;stroke-linejoin:miter;stroke-opacity:1"
       d="m 80.697917,148.58297 c 0,0 9.189213,16.32831 0,32.65661"
       id="path3018-6-6-4-9-1" />
    <rect
       style="fill:#210654;fill-opacity:1;stroke:none;stroke-width:0;stroke-miterlimit:4;stroke-dasharray:none;stroke-dashoffset:0;stroke-opacity:1"
       id="rect5840"
       width="70.357536"
       height="19.312044"
       x="-192.06587"
       y="97.10463"
       transform="rotate(-90)" />
    <path
       style="fill:#ffffff;fill-opacity:1;stroke:#000000;stroke-width:0.322041;stroke-miterlimit:4;stroke-dasharray:none;stroke-dashoffset:0;stroke-opacity:1"
       d=""
       title="sin(x)**2/x**2"
       id="path9318" />
    <path
       style="fill:#ffffff;fill-opacity:1;stroke:#000000;stroke-width:0.322041;stroke-miterlimit:4;stroke-dasharray:none;stroke-dashoffset:0;stroke-opacity:1"
       d=""
       title="sin(x)**2/x**2"
       id="path9400" />
    <path
       style="fill:#ffffff;fill-opacity:1;stroke:#000000;stroke-width:0.322041;stroke-miterlimit:4;stroke-dasharray:none;stroke-dashoffset:0;stroke-opacity:1"
       d=""
       title="sin(x)**2/x**2"
       id="path9484" />
    <path
       style="fill:#ffffff;fill-opacity:1;stroke:#000000;stroke-width:0.322041;stroke-miterlimit:4;stroke-dasharray:none;stroke-dashoffset:0;stroke-opacity:1"
       d=""
       title="sin(x)**2/x**2"
       id="path9570" />
    <path
       style="fill:none;fill-opacity:1;stroke:#17ebec;stroke-width:0.529;stroke-miterlimit:4;stroke-dasharray:none;stroke-dashoffset:0;stroke-opacity:1"
       d="m 116.41667,190.50034 c -0.017,-0.023 0.015,-0.0459 -0.002,-0.0689 -0.017,-0.0229 0.013,-0.0459 -0.003,-0.0688 -0.016,-0.023 0.013,-0.0459 -0.003,-0.0689 -0.015,-0.0229 0.013,-0.0459 -0.002,-0.0688 -0.015,-0.023 0.012,-0.0459 -0.003,-0.0689 -0.014,-0.023 0.011,-0.0459 -0.003,-0.0689 -0.014,-0.0229 0.011,-0.0459 -0.002,-0.0688 -0.014,-0.023 0.01,-0.0459 -0.003,-0.0689 -0.013,-0.0229 0.01,-0.0459 -0.003,-0.0688 -0.012,-0.023 0.009,-0.046 -0.002,-0.0689 -0.012,-0.023 0.008,-0.0459 -0.003,-0.0689 -0.011,-0.0229 0.008,-0.0459 -0.002,-0.0688 -0.011,-0.023 0.007,-0.0459 -0.003,-0.0689 -0.009,-0.0229 0.007,-0.0459 -0.002,-0.0688 -0.009,-0.023 0.006,-0.046 -0.002,-0.0689 -0.009,-0.023 0.005,-0.0459 -0.002,-0.0689 -0.008,-0.0229 0.005,-0.0459 -0.003,-0.0688 -0.007,-0.023 0.005,-0.0459 -0.002,-0.0689 -0.006,-0.0229 0.005,-0.0459 -10e-4,-0.0688 -0.006,-0.023 0.003,-0.046 -0.002,-0.0689 -0.006,-0.023 0.003,-0.0459 -0.002,-0.0689 -0.005,-0.0229 0.003,-0.0459 -0.001,-0.0688 -0.004,-0.023 0.002,-0.0459 -0.002,-0.0689 -0.003,-0.0229 0.002,-0.0459 -0.001,-0.0689 -0.003,-0.0229 0.001,-0.0459 -10e-4,-0.0688 -0.002,-0.023 10e-4,-0.0459 -0.001,-0.0689 -0.002,-0.0229 0,-0.0459 -0.001,-0.0688 -10e-4,-0.023 0,-0.0459 0,-0.0689 -10e-4,-0.0229 -10e-4,-0.0459 -10e-4,-0.0689 10e-4,-0.0229 -0.001,-0.0459 0,-0.0688 10e-4,-0.023 -0.001,-0.0459 0,-0.0689 10e-4,-0.0229 -0.002,-0.0459 0,-0.0688 0.002,-0.023 -0.002,-0.0459 0,-0.0689 0.003,-0.023 -0.003,-0.0459 10e-4,-0.0689 0.003,-0.0229 -0.004,-0.0459 0,-0.0688 0.004,-0.023 -0.003,-0.0459 0.001,-0.0689 0.005,-0.0229 -0.004,-0.0459 0.001,-0.0688 0.005,-0.023 -0.005,-0.0459 10e-4,-0.0689 0.006,-0.023 -0.005,-0.0459 0.001,-0.0689 0.007,-0.0229 -0.005,-0.0459 0.002,-0.0688 0.007,-0.023 -0.006,-0.0459 0.001,-0.0689 0.008,-0.0229 -0.006,-0.0459 0.002,-0.0688 0.008,-0.023 -0.007,-0.0459 0.002,-0.0689 0.008,-0.023 -0.008,-0.0459 0.002,-0.0689 0.009,-0.0229 -0.008,-0.0459 0.002,-0.0688 0.01,-0.023 -0.009,-0.0459 0.002,-0.0689 0.01,-0.0229 -0.009,-0.0459 0.002,-0.0688 0.011,-0.023 -0.009,-0.046 0.003,-0.0689 0.011,-0.023 -0.01,-0.0459 0.002,-0.0689 0.013,-0.0229 -0.01,-0.0459 0.003,-0.0688 0.013,-0.023 -0.011,-0.0459 0.002,-0.0689 0.014,-0.0229 -0.011,-0.0459 0.003,-0.0688 0.014,-0.023 -0.012,-0.046 0.003,-0.0689 0.015,-0.023 -0.013,-0.0459 0.003,-0.0689 0.015,-0.0229 -0.014,-0.0459 0.003,-0.0688 0.016,-0.023 -0.014,-0.0459 0.002,-0.0689 0.017,-0.0229 -0.014,-0.0459 0.003,-0.0688 0.018,-0.023 -0.015,-0.046 0.003,-0.0689 0.018,-0.023 -0.015,-0.0459 0.003,-0.0689 0.019,-0.0229 -0.016,-0.0459 0.003,-0.0688 0.019,-0.023 -0.017,-0.0459 0.003,-0.0689 0.02,-0.0229 -0.017,-0.0459 0.003,-0.0689 0.02,-0.0229 -0.018,-0.0459 0.003,-0.0688 0.02,-0.023 -0.019,-0.0459 0.002,-0.0689 0.022,-0.0229 -0.019,-0.0459 0.003,-0.0688 0.022,-0.023 -0.02,-0.0459 0.002,-0.0689 0.023,-0.0229 -0.02,-0.0459 0.003,-0.0689 0.023,-0.0229 -0.022,-0.0459 0.002,-0.0688 0.024,-0.023 -0.022,-0.0459 0.002,-0.0685 0.025,-0.023 -0.022,-0.046 0.002,-0.069 0.025,-0.023 -0.023,-0.046 0.002,-0.069 0.026,-0.023 -0.024,-0.046 0.002,-0.069 0.026,-0.023 -0.025,-0.046 0.002,-0.069 0.026,-0.023 -0.026,-0.046 10e-4,-0.069 0.027,-0.023 -0.026,-0.046 0.001,-0.069 0.028,-0.022 -0.027,-0.045 0.002,-0.068 0.028,-0.023 -0.028,-0.046 0,-0.069 0.029,-0.023 -0.028,-0.046 0.001,-0.069 0.029,-0.023 -0.029,-0.046 10e-4,-0.069 0.03,-0.023 -0.03,-0.046 0,-0.069 0.03,-0.023 -0.031,-0.046 0,-0.069 0.031,-0.023 -0.031,-0.046 0,-0.069 0.031,-0.023 -0.032,-0.045 0,-0.068 0.032,-0.023 -0.033,-0.046 -10e-4,-0.069 0.033,-0.023 -0.034,-0.046 -0.001,-0.069 0.033,-0.023 -0.034,-0.046 0,-0.069 0.033,-0.023 -0.036,-0.046 -0.002,-0.069 0.034,-0.023 -0.036,-0.046 -0.001,-0.069 0.034,-0.023 -0.037,-0.046 -0.002,-0.069 0.035,-0.023 -0.037,-0.045 -0.001,-0.068 0.035,-0.023 -0.039,-0.046 -0.003,-0.069 0.037,-0.023 -0.038,-0.046 -0.002,-0.069 0.037,-0.023 -0.039,-0.046 -0.002,-0.069 0.037,-0.023 -0.04,-0.046 -0.003,-0.069 0.038,-0.023 -0.041,-0.046 -0.003,-0.069 0.038,-0.023 -0.041,-0.046 -0.003,-0.069 0.039,-0.023 -0.042,-0.046 -0.003,-0.068 0.039,-0.023 -0.043,-0.046 -0.003,-0.069 0.039,-0.023 -0.044,-0.046 -0.004,-0.069 0.04,-0.023 -0.044,-0.046 -0.003,-0.069 0.04,-0.023 -0.045,-0.046 -0.004,-0.069 0.041,-0.023 -0.045,-0.046 -0.004,-0.069 0.041,-0.023 -0.046,-0.046 -0.004,-0.069 0.042,-0.023 -0.046,-0.046 -0.004,-0.068 0.042,-0.023 -0.047,-0.046 -0.004,-0.069 0.043,-0.023 -0.048,-0.046 -0.004,-0.069 0.043,-0.023 -0.048,-0.046 -0.005,-0.069 0.044,-0.023 -0.048,-0.046 -0.004,-0.069 0.044,-0.023 -0.049,-0.046 -0.004,-0.069 0.044,-0.023 -0.05,-0.046 -0.005,-0.069 0.045,-0.023 -0.05,-0.046 -0.004,-0.069 0.045,-0.022 -0.05,-0.045 -0.005,-0.068 0.046,-0.023 -0.05,-0.046 -0.004,-0.069 0.046,-0.023 -0.051,-0.046 -0.004,-0.069 0.046,-0.023 -0.052,-0.046 -0.005,-0.069 0.047,-0.023 -0.051,-0.046 -0.004,-0.069 0.047,-0.023 -0.052,-0.046 -0.004,-0.069 0.048,-0.023 -0.052,-0.046 -0.004,-0.069 0.048,-0.022 -0.052,-0.045 -0.004,-0.068 0.049,-0.023 -0.053,-0.046 -0.004,-0.069 0.049,-0.023 -0.053,-0.046 -0.003,-0.069 0.049,-0.023 -0.054,-0.046 -0.004,-0.069 0.05,-0.023 -0.053,-0.046 -0.003,-0.069 0.05,-0.023 -0.054,-0.046 -0.003,-0.069 0.05,-0.023 -0.054,-0.046 -0.003,-0.069 0.05,-0.023 -0.054,-0.045 -0.003,-0.068 0.051,-0.023 -0.054,-0.046 -0.003,-0.069 0.052,-0.023 -0.054,-0.046 -0.002,-0.069 0.052,-0.023 -0.054,-0.046 -0.002,-0.069 0.052,-0.023 -0.054,-0.046 -0.002,-0.069 0.053,-0.023 -0.054,-0.046 -0.001,-0.069 0.052,-0.023 -0.055,-0.046 -0.002,-0.069 0.053,-0.023 -0.054,-0.045 -0.001,-0.068 0.054,-0.023 -0.054,-0.046 -0.001,-0.069 0.054,-0.023 -0.054,-0.046 0,-0.069 0.054,-0.023 -0.055,-0.046 0,-0.069 0.054,-0.023 -0.055,-0.046 0,-0.069 0.054,-0.023 -0.055,-0.046 0,-0.069 0.055,-0.023 -0.055,-0.046 0.001,-0.069 0.055,-0.023 -0.055,-0.046 0.001,-0.068 0.055,-0.023 -0.055,-0.046 10e-4,-0.069 0.055,-0.023 -0.055,-0.046 0.001,-0.069 0.056,-0.023 -0.054,-0.046 0.002,-0.069 0.056,-0.023 -0.055,-0.046 0.002,-0.069 0.056,-0.023 -0.055,-0.046 0.002,-0.069 0.057,-0.023 -0.055,-0.046 0.002,-0.069 0.057,-0.023 -0.054,-0.046 0.003,-0.068 0.057,-0.023 -0.054,-0.046 0.003,-0.069 0.058,-0.023 -0.054,-0.046 0.003,-0.069 0.058,-0.023 -0.054,-0.046 0.004,-0.069 0.058,-0.023 -0.055,-0.046 0.003,-0.069 0.058,-0.023 -0.054,-0.046 0.004,-0.069 0.058,-0.023 -0.054,-0.046 0.004,-0.069 0.059,-0.023 -0.054,-0.046 0.004,-0.069 0.059,-0.022 -0.054,-0.045 0.005,-0.068 0.058,-0.023 -0.055,-0.046 0.004,-0.069 0.059,-0.023 -0.055,-0.046 0.005,-0.069 0.059,-0.023 -0.055,-0.046 0.004,-0.069 0.06,-0.023 -0.055,-0.046 0.005,-0.069 0.06,-0.023 -0.055,-0.046 0.005,-0.069 0.06,-0.023 -0.055,-0.046 0.005,-0.069 0.06,-0.022 -0.056,-0.045 0.004,-0.068 0.061,-0.023 -0.055,-0.046 0.005,-0.069 0.061,-0.023 -0.055,-0.046 0.005,-0.069 0.061,-0.023 -0.055,-0.046 0.005,-0.069 0.061,-0.023 -0.056,-0.046 0.005,-0.069 0.061,-0.023 -0.056,-0.046 0.005,-0.069 0.06,-0.023 -0.056,-0.046 0.004,-0.069 0.061,-0.023 -0.056,-0.045 0.005,-0.068 0.061,-0.023 -0.057,-0.046 0.004,-0.069 0.061,-0.023 -0.057,-0.046 0.005,-0.069 0.061,-0.023 -0.057,-0.046 0.004,-0.069 0.061,-0.023 -0.058,-0.046 0.004,-0.069 0.061,-0.023 -0.058,-0.046 0.003,-0.069 0.062,-0.023 -0.058,-0.046 0.004,-0.069 0.061,-0.023 -0.058,-0.045 0.003,-0.068 0.062,-0.023 -0.058,-0.046 0.003,-0.069 0.062,-0.023 -0.059,-0.046 0.003,-0.069 0.061,-0.023 -0.059,-0.046 0.002,-0.069 0.062,-0.023 -0.059,-0.046 0.002,-0.069 0.062,-0.023 -0.059,-0.046 0.002,-0.069 0.062,-0.023 -0.06,-0.046 0.002,-0.069 0.061,-0.023 -0.061,-0.046 0.001,-0.068 0.062,-0.023 -0.061,-0.046 10e-4,-0.069 0.061,-0.023 -0.062,-0.046 0,-0.069 0.062,-0.023 -0.062,-0.046 0,-0.069 0.062,-0.023 -0.062,-0.046 0,-0.069 0.062,-0.023 -0.063,-0.046 -10e-4,-0.069 0.062,-0.023 -0.063,-0.046 -0.001,-0.069 0.062,-0.023 -0.063,-0.046 -10e-4,-0.068 0.061,-0.023 -0.064,-0.046 -0.002,-0.069 0.061,-0.023 -0.064,-0.046 -0.003,-0.069 0.062,-0.023 -0.064,-0.046 -0.002,-0.069 0.061,-0.023 -0.065,-0.046 -0.003,-0.069 0.061,-0.023 -0.065,-0.046 -0.004,-0.069 0.062,-0.023 -0.065,-0.046 -0.004,-0.069 0.062,-0.023 -0.065,-0.046 -0.004,-0.069 0.062,-0.022 -0.066,-0.045 -0.004,-0.068 0.061,-0.023 -0.067,-0.046 -0.005,-0.069 0.061,-0.023 -0.067,-0.046 -0.006,-0.069 0.061,-0.023 -0.066,-0.046 -0.005,-0.069 0.061,-0.023 -0.067,-0.046 -0.006,-0.069 0.061,-0.023 -0.068,-0.046 -0.007,-0.069 0.061,-0.023 -0.067,-0.046 -0.006,-0.069 0.06,-0.023 -0.068,-0.045 -0.007,-0.068 0.06,-0.023 -0.068,-0.046 -0.007,-0.069 0.06,-0.023 -0.068,-0.046 -0.008,-0.069 0.061,-0.023 -0.068,-0.046 -0.007,-0.069 0.06,-0.023 -0.068,-0.046 -0.008,-0.069 0.06,-0.023 -0.068,-0.046 -0.008,-0.069 0.06,-0.023 -0.068,-0.046 -0.008,-0.069 0.06,-0.023 -0.068,-0.045 -0.008,-0.068 0.059,-0.023 -0.068,-0.046 -0.009,-0.069 0.06,-0.023 -0.068,-0.046 -0.008,-0.069 0.059,-0.023 -0.068,-0.046 -0.009,-0.069 0.059,-0.023 -0.067,-0.046 -0.008,-0.069 0.059,-0.023 -0.068,-0.046 -0.009,-0.069 0.059,-0.023 -0.067,-0.046 -0.009,-0.069 0.059,-0.023 -0.066,-0.046 -0.008,-0.068 0.058,-0.023 -0.067,-0.046 -0.008,-0.069 0.058,-0.023 -0.067,-0.046 -0.009,-0.069 0.058,-0.023 -0.066,-0.046 -0.008,-0.069 0.058,-0.023 -0.065,-0.046 -0.008,-0.069 0.058,-0.023 -0.065,-0.046 -0.008,-0.069 0.058,-0.023 -0.064,-0.046 -0.007,-0.069 0.057,-0.023 -0.064,-0.046 -0.007,-0.068 0.056,-0.023 -0.064,-0.046 -0.008,-0.069 0.057,-0.023 -0.063,-0.046 -0.006,-0.069 0.056,-0.023 -0.063,-0.046 -0.007,-0.069 0.056,-0.023 -0.062,-0.046 -0.006,-0.069 0.056,-0.023 -0.061,-0.046 -0.005,-0.069 0.055,-0.023 -0.061,-0.046 -0.006,-0.069 0.056,-0.023 -0.06,-0.046 -0.005,-0.069 0.055,-0.022 -0.059,-0.045 -0.004,-0.068 0.055,-0.023 -0.058,-0.046 -0.004,-0.069 0.054,-0.023 -0.058,-0.046 -0.004,-0.069 0.055,-0.023 -0.056,-0.046 -0.003,-0.069 0.054,-0.023 -0.056,-0.046 -0.002,-0.069 0.053,-0.023 -0.055,-0.046 -0.002,-0.069 0.053,-0.023 -0.055,-0.046 -0.002,-0.069 0.053,-0.022 -0.053,-0.045 -0.001,-0.068 0.053,-0.023 -0.052,-0.046 0,-0.069 0.052,-0.023 -0.052,-0.046 0,-0.069 0.052,-0.023 -0.051,-0.046 0.001,-0.069 0.051,-0.023 -0.05,-0.046 10e-4,-0.069 0.051,-0.023 -0.049,-0.046 0.002,-0.069 0.051,-0.023 -0.048,-0.046 0.002,-0.069 0.051,-0.023 -0.047,-0.045 0.003,-0.068 0.05,-0.023 -0.046,-0.046 0.004,-0.069 0.049,-0.023 -0.046,-0.046 0.004,-0.069 0.049,-0.023 -0.045,-0.046 0.004,-0.069 0.049,-0.023 -0.044,-0.046 0.005,-0.069 0.049,-0.023 -0.043,-0.046 0.006,-0.069 0.048,-0.023 -0.042,-0.046 0.006,-0.069 0.047,-0.023 -0.042,-0.045 0.006,-0.068 0.047,-0.023 -0.04,-0.046 0.007,-0.069 0.047,-0.023 -0.04,-0.046 0.007,-0.069 0.047,-0.023 -0.038,-0.046 0.008,-0.069 0.046,-0.023 -0.038,-0.046 0.008,-0.069 0.046,-0.023 -0.037,-0.046 0.008,-0.069 0.046,-0.023 -0.036,-0.046 0.009,-0.069 0.045,-0.023 -0.036,-0.046 0.009,-0.068 0.045,-0.023 -0.035,-0.046 0.009,-0.069 0.044,-0.023 -0.034,-0.046 0.01,-0.069 0.043,-0.023 -0.034,-0.046 0.009,-0.069 0.044,-0.023 -0.033,-0.046 0.01,-0.069 0.043,-0.023 -0.032,-0.046 0.01,-0.069 0.042,-0.023 -0.032,-0.046 0.01,-0.069 0.042,-0.023 -0.032,-0.046 0.01,-0.068 0.041,-0.023 -0.031,-0.046 0.01,-0.069 0.041,-0.023 -0.031,-0.046 0.01,-0.069 0.04,-0.023 -0.031,-0.046 0.009,-0.069 0.04,-0.023 -0.03,-0.046 0.01,-0.069 0.039,-0.023 -0.03,-0.046 0.009,-0.069 0.039,-0.023 -0.029,-0.046 0.009,-0.069 0.039,-0.023 -0.029,-0.046 0.009,-0.069 0.038,-0.022 -0.029,-0.045 0.009,-0.068 0.037,-0.023 -0.029,-0.046 0.008,-0.069 0.037,-0.023 -0.029,-0.046 0.008,-0.069 0.036,-0.023 -0.029,-0.046 0.007,-0.069 0.036,-0.023 -0.029,-0.046 0.007,-0.069 0.035,-0.023 -0.029,-0.046 0.006,-0.069 0.035,-0.023 -0.029,-0.046 0.006,-0.069 0.034,-0.022 -0.03,-0.045 0.005,-0.068 0.034,-0.023 -0.03,-0.046 0.004,-0.069 0.034,-0.023 -0.029,-0.046 0.004,-0.069 0.033,-0.023 -0.03,-0.046 0.003,-0.069 0.032,-0.023 -0.03,-0.046 0.002,-0.069 0.032,-0.023 -0.03,-0.046 0.001,-0.069 0.032,-0.023 -0.03,-0.046 10e-4,-0.069 0.031,-0.023 -0.031,-0.045 0,-0.068 0.03,-0.023 -0.031,-0.046 -10e-4,-0.069 0.03,-0.023 -0.031,-0.046 -0.002,-0.069 0.029,-0.023 -0.032,-0.046 -0.003,-0.069 0.029,-0.023 -0.032,-0.046 -0.004,-0.069 0.029,-0.023 -0.032,-0.046 -0.004,-0.069 0.027,-0.023 -0.033,-0.046 -0.006,-0.069 0.027,-0.023 -0.033,-0.045 -0.007,-0.068 0.027,-0.023 -0.033,-0.046 -0.007,-0.069 0.026,-0.023 -0.034,-0.046 -0.009,-0.069 0.026,-0.023 -0.034,-0.046 -0.009,-0.069 0.025,-0.023 -0.035,-0.046 -0.011,-0.069 0.025,-0.023 -0.035,-0.046 -0.011,-0.069 0.024,-0.023 -0.035,-0.046 -0.012,-0.069 0.023,-0.023 -0.036,-0.046 -0.013,-0.068 0.022,-0.023 -0.037,-0.046 -0.014,-0.069 0.022,-0.023 -0.037,-0.046 -0.015,-0.069 0.021,-0.023 -0.037,-0.046 -0.016,-0.069 0.021,-0.023 -0.037,-0.046 -0.017,-0.069 0.021,-0.023 -0.037,-0.046 -0.017,-0.069 0.02,-0.023 -0.038,-0.046 -0.018,-0.069 0.019,-0.023 -0.038,-0.046 -0.019,-0.068 0.018,-0.023 -0.038,-0.046 -0.02,-0.069 0.018,-0.023 -0.037,-0.046 -0.02,-0.069 0.017,-0.023 -0.038,-0.046 -0.021,-0.069 0.017,-0.023 -0.037,-0.046 -0.021,-0.069 0.016,-0.023 -0.037,-0.046 -0.022,-0.069 0.016,-0.023 -0.037,-0.046 -0.022,-0.069 0.015,-0.023 -0.037,-0.046 -0.023,-0.069 0.015,-0.022 -0.036,-0.045 -0.022,-0.068 0.013,-0.023 -0.037,-0.046 -0.024,-0.069 0.014,-0.023 -0.036,-0.046 -0.023,-0.069 0.013,-0.023 -0.035,-0.046 -0.023,-0.069 0.012,-0.023 -0.035,-0.046 -0.024,-0.069 0.012,-0.023 -0.034,-0.046 -0.023,-0.069 0.011,-0.023 -0.034,-0.046 -0.024,-0.069 0.011,-0.022 -0.032,-0.045 -0.023,-0.068 0.01,-0.023 -0.032,-0.046 -0.023,-0.069 0.009,-0.023 -0.031,-0.046 -0.022,-0.069 0.008,-0.023 -0.03,-0.046 -0.022,-0.069 0.007,-0.023 -0.029,-0.046 -0.022,-0.069 0.007,-0.023 -0.028,-0.046 -0.021,-0.069 0.006,-0.023 -0.027,-0.046 -0.021,-0.069 0.006,-0.023 -0.025,-0.045 -0.02,-0.068 0.005,-0.023 -0.024,-0.046 -0.019,-0.069 0.005,-0.023 -0.023,-0.046 -0.019,-0.069 0.005,-0.023 -0.02,-0.046 -0.017,-0.069 0.003,-0.023 -0.019,-0.046 -0.016,-0.069 0.002,-0.023 -0.018,-0.046 -0.016,-0.069 0.002,-0.023 -0.016,-0.046 -0.014,-0.069 0.001,-0.023 -0.014,-0.045 -0.014,-0.068 10e-4,-0.023 -0.012,-0.046 -0.012,-0.069 10e-4,-0.023 -0.01,-0.046 -0.01,-0.069 0,-0.023 -0.009,-0.046 -0.01,-0.069 -10e-4,-0.023 -0.006,-0.046 -0.008,-0.069 -0.001,-0.023 -0.004,-0.046 -0.006,-0.069 -0.002,-0.023 -0.003,-0.046 -0.005,-0.069 -0.003,-0.023 -0.001,-0.046 -0.004,-0.068 -0.003,-0.023 0.002,-0.046 -0.002,-0.069 -0.004,-0.023 0.004,-0.046 -0.001,-0.069 -0.004,-0.023 0.006,-0.046 0.001,-0.069 -0.005,-0.023 0.009,-0.046 0.003,-0.069 -0.006,-0.023 0.01,-0.046 0.004,-0.069 -0.006,-0.023 0.013,-0.046 0.006,-0.069 -0.007,-0.023 0.015,-0.046 0.007,-0.068 -0.007,-0.023 0.018,-0.046 0.009,-0.069 -0.008,-0.023 0.02,-0.046 0.011,-0.069 -0.009,-0.023 0.022,-0.046 0.012,-0.069 -0.009,-0.023 0.024,-0.046 0.014,-0.069 -0.01,-0.023 0.026,-0.046 0.015,-0.069 -0.01,-0.023 0.028,-0.046 0.017,-0.069 -0.011,-0.023 0.03,-0.046 0.018,-0.069 -0.012,-0.022 0.033,-0.045 0.02,-0.068 -0.012,-0.023 0.034,-0.046 0.021,-0.069 -0.013,-0.023 0.036,-0.046 0.022,-0.069 -0.013,-0.023 0.038,-0.046 0.024,-0.069 -0.014,-0.023 0.04,-0.046 0.025,-0.069 -0.015,-0.023 0.041,-0.046 0.025,-0.069 -0.015,-0.023 0.043,-0.046 0.027,-0.069 -0.016,-0.022 0.044,-0.045 0.027,-0.068 -0.016,-0.023 0.046,-0.046 0.029,-0.069 -0.018,-0.023 0.047,-0.046 0.029,-0.069 -0.018,-0.023 0.048,-0.046 0.029,-0.069 -0.018,-0.023 0.049,-0.046 0.03,-0.069 -0.019,-0.023 0.05,-0.046 0.03,-0.069 -0.019,-0.023 0.051,-0.046 0.031,-0.069 -0.021,-0.023 0.051,-0.045 0.03,-0.068 -0.021,-0.023 0.052,-0.046 0.03,-0.069 -0.021,-0.023 0.052,-0.046 0.03,-0.069 -0.022,-0.023 0.052,-0.046 0.029,-0.069 -0.022,-0.023 0.052,-0.046 0.029,-0.069 -0.023,-0.023 0.052,-0.046 0.028,-0.069 -0.023,-0.023 0.052,-0.046 0.027,-0.069 -0.024,-0.023 0.051,-0.045 0.026,-0.068 -0.024,-0.023 0.051,-0.046 0.025,-0.069 -0.025,-0.023 0.049,-0.046 0.023,-0.069 -0.026,-0.023 0.048,-0.046 0.022,-0.069 -0.027,-0.023 0.047,-0.046 0.02,-0.069 -0.028,-0.023 0.045,-0.046 0.017,-0.069 -0.028,-0.023 0.044,-0.046 0.016,-0.069 -0.029,-0.023 0.041,-0.046 0.013,-0.068 -0.029,-0.023 0.039,-0.046 0.01,-0.069 -0.029,-0.023 0.037,-0.046 0.007,-0.069 -0.03,-0.023 0.035,-0.046 0.005,-0.069 -0.031,-0.023 0.032,-0.046 10e-4,-0.069 -0.031,-0.023 0.03,-0.046 -0.002,-0.069 -0.031,-0.023 0.026,-0.046 -0.006,-0.069 -0.032,-0.023 0.023,-0.046 -0.009,-0.068 -0.033,-0.023 0.019,-0.046 -0.014,-0.069 -0.033,-0.023 0.016,-0.046 -0.017,-0.069 -0.034,-0.023 0.012,-0.046 -0.022,-0.069 -0.035,-0.023 0.008,-0.046 -0.027,-0.069 -0.035,-0.023 0.004,-0.046 -0.031,-0.069 -0.035,-0.023 -0.001,-0.046 -0.036,-0.069 -0.036,-0.023 -0.005,-0.046 -0.042,-0.069 -0.036,-0.022 -0.009,-0.045 -0.046,-0.068 -0.037,-0.023 -0.015,-0.046 -0.052,-0.069 -0.037,-0.023 -0.019,-0.046 -0.057,-0.069 -0.038,-0.023 -0.025,-0.046 -0.063,-0.069 -0.038,-0.023 -0.03,-0.046 -0.069,-0.069 -0.038,-0.023 -0.035,-0.046 -0.074,-0.069 -0.04,-0.023 -0.042,-0.046 -0.081,-0.069 -0.04,-0.022 -0.047,-0.045 -0.087,-0.068 -0.04,-0.023 -0.053,-0.046 -0.093,-0.069 -0.041,-0.023 -0.059,-0.046 -0.1,-0.069 -0.041,-0.023 -0.064,-0.046 -0.106,-0.069 -0.041,-0.023 -0.07,-0.046 -0.112,-0.069 -0.042,-0.023 -0.077,-0.046 -0.119,-0.069 -0.043,-0.023 -0.083,-0.046 -0.126,-0.069 -0.043,-0.023 -0.089,-0.045 -0.132,-0.068 -0.044,-0.023 -0.096,-0.046 -0.139,-0.069 -0.044,-0.023 -0.102,-0.046 -0.146,-0.069 -0.044,-0.023 -0.108,-0.046 -0.153,-0.069 -0.044,-0.023 -0.114,-0.046 -0.159,-0.069 -0.045,-0.023 -0.121,-0.046 -0.16599,-0.069 -0.045,-0.023 -0.127,-0.046 -0.173,-0.069 -0.046,-0.023 -0.133,-0.045 -0.179,-0.068 -0.046,-0.023 -0.139,-0.046 -0.186,-0.069 -0.047,-0.023 -0.146,-0.046 -0.193,-0.069 -0.047,-0.023 -0.151,-0.046 -0.199,-0.069 -0.047,-0.023 -0.157,-0.046 -0.205,-0.069 -0.048,-0.023 -0.163,-0.046 -0.211,-0.069 -0.049,-0.023 -0.17,-0.046 -0.218,-0.069 -0.049,-0.023 -0.175,-0.046 -0.224,-0.068 -0.049,-0.023 -0.18,-0.046 -0.23,-0.069 -0.049,-0.023 -0.185,-0.046 -0.235,-0.069 -0.05,-0.023 -0.191,-0.046 -0.241,-0.069 -0.05,-0.023 -0.196,-0.046 -0.246,-0.069 -0.051,-0.023 -0.201,-0.046 -0.252,-0.069 -0.051,-0.023 -0.205,-0.046 -0.257,-0.069 -0.051,-0.023 -0.209,-0.046 -0.261,-0.068 -0.051,-0.023 -0.214,-0.046 -0.266,-0.069 -0.052,-0.023 -0.218,-0.046 -0.27,-0.069 -0.052,-0.023 -0.222,-0.046 -0.274,-0.069 -0.053,-0.023 -0.226,-0.046 -0.278,-0.069 -0.053,-0.023 -0.229,-0.046 -0.282,-0.069 -0.053,-0.023 -0.231,-0.046 -0.285,-0.069 -0.053,-0.023 -0.234,-0.046 -0.288,-0.069 -0.053,-0.022 -0.236,-0.045 -0.29,-0.068 -0.054,-0.023 -0.239,-0.046 -0.293,-0.069 -0.055,-0.023 -0.241,-0.046 -0.295,-0.069 -0.055,-0.023 -0.242,-0.046 -0.297,-0.069 -0.055,-0.023 -0.243,-0.046 -0.298,-0.069 -0.055,-0.023 -0.244,-0.046 -0.299,-0.069 -0.056,-0.023 -0.245,-0.046 -0.3,-0.069 -0.056,-0.022 -0.245,-0.045 -0.301,-0.068 -0.056,-0.023 -0.244,-0.046 -0.3,-0.069 -0.056,-0.023 -0.244,-0.046 -0.3,-0.069 -0.057,-0.023 -0.24299,-0.046 -0.29899,-0.069 -0.057,-0.023 -0.242,-0.046 -0.299,-0.069 -0.057,-0.023 -0.24,-0.046 -0.297,-0.069 -0.057,-0.023 -0.237,-0.046 -0.295,-0.069 -0.057,-0.023 -0.235,-0.045 -0.293,-0.068 -0.058,-0.023 -0.233,-0.046 -0.29,-0.069 -0.058,-0.023 -0.23,-0.046 -0.288,-0.069 -0.058,-0.023 -0.226,-0.046 -0.284,-0.069 -0.059,-0.023 -0.223,-0.046 -0.281,-0.069 -0.059,-0.023 -0.218,-0.046 -0.277,-0.069 -0.059,-0.023 -0.214,-0.046 -0.272,-0.069 -0.059,-0.023 -0.209,-0.045 -0.268,-0.068 -0.059,-0.023 -0.204,-0.046 -0.263,-0.069 -0.059,-0.023 -0.198,-0.046 -0.257,-0.069 -0.06,-0.023 -0.192,-0.046 -0.252,-0.069 -0.059,-0.023 -0.185,-0.046 -0.245,-0.069 -0.06,-0.023 -0.179,-0.046 -0.239,-0.069 -0.06,-0.023 -0.172,-0.046 -0.232,-0.069 -0.06,-0.023 -0.165,-0.046 -0.225,-0.068 -0.061,-0.023 -0.158,-0.046 -0.218,-0.069 -0.06,-0.023 -0.15,-0.046 -0.21,-0.069 -0.061,-0.023 -0.142,-0.046 -0.202003,-0.069 -0.061,-0.023 -0.133,-0.046 -0.194,-0.069 -0.061,-0.023 -0.124,-0.046 -0.185,-0.069 -0.061,-0.023 -0.116,-0.046 -0.177,-0.069 -0.061,-0.023 -0.106,-0.046 -0.167,-0.068 -0.061,-0.023 -0.097,-0.046 -0.158,-0.069 -0.061,-0.023 -0.088,-0.046 -0.149,-0.069 -0.061,-0.023 -0.078,-0.046 -0.139,-0.069 -0.061,-0.023 -0.068,-0.046 -0.129,-0.069 -0.061,-0.023 -0.057,-0.046 -0.119,-0.069 -0.061,-0.023 -0.047,-0.046 -0.109,-0.069 -0.061,-0.023 -0.036,-0.046 -0.098,-0.069 -0.061,-0.022 -0.026,-0.045 -0.088,-0.068 -0.061,-0.023 -0.015,-0.046 -0.077,-0.069 -0.061,-0.023 -0.004,-0.046 -0.066,-0.069 -0.062,-0.023 0.007,-0.046 -0.055,-0.069 -0.062,-0.023 0.017,-0.046 -0.045,-0.069 -0.061,-0.023 0.029,-0.046 -0.033,-0.069 -0.062,-0.023 0.04,-0.046 -0.022,-0.069 -0.062,-0.022 0.051,-0.045 -0.011,-0.068 -0.062,-0.023 0.062,-0.046 0,-0.069 -0.062,-0.023 0.073,-0.046 0.011,-0.069 -0.062,-0.023 0.084,-0.046 0.022,-0.069 -0.062,-0.023 0.095,-0.046 0.033,-0.069 -0.061,-0.023 0.107,-0.046 0.045,-0.069 -0.062,-0.023 0.117,-0.046 0.055,-0.069 -0.062,-0.023 0.128,-0.045 0.066,-0.068 -0.061,-0.023 0.139,-0.046 0.077,-0.069 -0.061,-0.023 0.15,-0.046 0.088,-0.069 -0.061,-0.023 0.16,-0.046 0.098,-0.069 -0.061,-0.023 0.171,-0.046 0.109,-0.069 -0.061,-0.023 0.18,-0.046 0.119,-0.069 -0.061,-0.023 0.19,-0.046 0.129,-0.069 -0.061,-0.023 0.2,-0.045 0.139,-0.068 -0.061,-0.023 0.21,-0.046 0.149,-0.069 -0.061,-0.023 0.219,-0.046 0.158,-0.069 -0.061,-0.023 0.228,-0.046 0.167,-0.069 -0.061,-0.023 0.238,-0.046 0.177,-0.069 -0.061,-0.023 0.246,-0.046 0.185,-0.069 -0.061,-0.023 0.254003,-0.046 0.194,-0.069 -0.061,-0.023 0.262003,-0.046 0.202003,-0.068 -0.061,-0.023 0.27,-0.046 0.21,-0.069 -0.06,-0.023 0.278,-0.046 0.218,-0.069 -0.061,-0.023 0.285,-0.046 0.225,-0.069 -0.06,-0.023 0.292,-0.046 0.232,-0.069 -0.06,-0.023 0.299,-0.046 0.239,-0.069 -0.06,-0.023 0.305,-0.046 0.245,-0.069 -0.059,-0.023 0.311,-0.046 0.252,-0.068 -0.06,-0.023 0.316,-0.046 0.257,-0.069 -0.059,-0.023 0.322,-0.046 0.263,-0.069 -0.059,-0.023 0.326,-0.046 0.268,-0.069 -0.059,-0.023 0.331,-0.046 0.272,-0.069 -0.059,-0.023 0.335,-0.046 0.277,-0.069 -0.059,-0.023 0.339,-0.046 0.281,-0.069 -0.059,-0.023 0.342,-0.046 0.284,-0.069 -0.058,-0.022 0.345,-0.045 0.288,-0.068 -0.058,-0.023 0.348,-0.046 0.29,-0.069 -0.058,-0.023 0.351,-0.046 0.293,-0.069 -0.057,-0.023 0.352,-0.046 0.295,-0.069 -0.057,-0.023 0.354,-0.046 0.297,-0.069 -0.057,-0.023 0.355,-0.046 0.299,-0.069 -0.057,-0.023 0.35499,-0.046 0.29899,-0.069 -0.057,-0.022 0.356,-0.045 0.3,-0.068 -0.056,-0.023 0.356,-0.046 0.3,-0.069 -0.056,-0.023 0.356,-0.046 0.301,-0.069 -0.056,-0.023 0.355,-0.046 0.3,-0.069 -0.056,-0.023 0.354,-0.046 0.299,-0.069 -0.055,-0.023 0.353,-0.046 0.298,-0.069 -0.055,-0.023 0.351,-0.046 0.297,-0.069 -0.055,-0.023 0.349,-0.045 0.295,-0.068 -0.055,-0.023 0.347,-0.046 0.293,-0.069 -0.054,-0.023 0.344,-0.046 0.29,-0.069 -0.053,-0.023 0.342,-0.046 0.288,-0.069 -0.053,-0.023 0.338,-0.046 0.285,-0.069 -0.053,-0.023 0.334,-0.046 0.282,-0.069 -0.053,-0.023 0.33,-0.046 0.278,-0.069 -0.053,-0.023 0.326,-0.045 0.274,-0.068 -0.052,-0.023 0.322,-0.046 0.27,-0.069 -0.052,-0.023 0.318,-0.046 0.266,-0.069 -0.051,-0.023 0.313,-0.046 0.261,-0.069 -0.051,-0.023 0.308,-0.046 0.257,-0.069 -0.051,-0.023 0.302,-0.046 0.252,-0.069 -0.051,-0.023 0.296,-0.046 0.246,-0.069 -0.05,-0.023 0.291,-0.046 0.241,-0.068 -0.05,-0.023 0.285,-0.046 0.235,-0.069 -0.049,-0.023 0.279,-0.046 0.23,-0.069 -0.049,-0.023 0.272,-0.046 0.224,-0.069 -0.049,-0.023 0.266,-0.046 0.218,-0.069 -0.049,-0.023 0.259,-0.046 0.211,-0.069 -0.048,-0.023 0.253,-0.046 0.205,-0.069 -0.047,-0.023 0.246,-0.046 0.199,-0.068 -0.047,-0.023 0.24,-0.046 0.193,-0.069 -0.047,-0.023 0.232,-0.046 0.186,-0.069 -0.046,-0.023 0.225,-0.046 0.179,-0.069 -0.046,-0.023 0.21799,-0.046 0.173,-0.069 -0.045,-0.023 0.21099,-0.046 0.16599,-0.069 -0.045,-0.023 0.204,-0.046 0.159,-0.069 -0.044,-0.023 0.197,-0.046 0.153,-0.069 -0.044,-0.022 0.189,-0.045 0.146,-0.068 -0.044,-0.023 0.182,-0.046 0.139,-0.069 -0.044,-0.023 0.175,-0.046 0.132,-0.069 -0.043,-0.023 0.168,-0.046 0.126,-0.069 -0.043,-0.023 0.161,-0.046 0.119,-0.069 -0.042,-0.023 0.154,-0.046 0.112,-0.069 -0.041,-0.023 0.147,-0.046 0.106,-0.069 -0.041,-0.022 0.14,-0.045 0.1,-0.068 -0.041,-0.023 0.133,-0.046 0.093,-0.069 -0.04,-0.023 0.126,-0.046 0.087,-0.069 -0.04,-0.023 0.12,-0.046 0.081,-0.069 -0.04,-0.023 0.113,-0.046 0.074,-0.069 -0.038,-0.023 0.107,-0.046 0.069,-0.069 -0.038,-0.023 0.101,-0.046 0.063,-0.069 -0.038,-0.023 0.094,-0.045 0.057,-0.068 -0.037,-0.023 0.089,-0.046 0.052,-0.069 -0.037,-0.023 0.083,-0.046 0.046,-0.069 -0.036,-0.023 0.077,-0.046 0.042,-0.069 -0.036,-0.023 0.071,-0.046 0.036,-0.069 -0.035,-0.023 0.066,-0.046 0.031,-0.069 -0.035,-0.023 0.061,-0.046 0.027,-0.069 -0.035,-0.023 0.055,-0.046 0.022,-0.068 -0.034,-0.023 0.05,-0.046 0.017,-0.069 -0.033,-0.023 0.046,-0.046 0.014,-0.069 -0.033,-0.023 0.041,-0.046 0.009,-0.069 -0.032,-0.023 0.038,-0.046 0.006,-0.069 -0.031,-0.023 0.033,-0.046 0.002,-0.069 -0.031,-0.023 0.029,-0.046 -10e-4,-0.069 -0.031,-0.023 0.025,-0.046 -0.005,-0.068 -0.03,-0.023 0.022,-0.046 -0.007,-0.069 -0.029,-0.023 0.018,-0.046 -0.01,-0.069 -0.029,-0.023 0.015,-0.046 -0.013,-0.069 -0.029,-0.023 0.012,-0.046 -0.016,-0.069 -0.028,-0.023 0.01,-0.046 -0.017,-0.069 -0.028,-0.023 0.006,-0.046 -0.02,-0.069 -0.027,-0.023 0.004,-0.046 -0.022,-0.069 -0.026,-0.022 0.003,-0.045 -0.023,-0.068 -0.025,-0.023 0,-0.046 -0.025,-0.069 -0.024,-0.023 -0.001,-0.046 -0.026,-0.069 -0.024,-0.023 -0.003,-0.046 -0.027,-0.069 -0.023,-0.023 -0.005,-0.046 -0.028,-0.069 -0.023,-0.023 -0.006,-0.046 -0.029,-0.069 -0.022,-0.023 -0.007,-0.046 -0.029,-0.069 -0.022,-0.022 -0.008,-0.045 -0.03,-0.068 -0.021,-0.023 -0.009,-0.046 -0.03,-0.069 -0.021,-0.023 -0.01,-0.046 -0.03,-0.069 -0.021,-0.023 -0.011,-0.046 -0.031,-0.069 -0.019,-0.023 -0.011,-0.046 -0.03,-0.069 -0.019,-0.023 -0.011,-0.046 -0.03,-0.069 -0.018,-0.023 -0.011,-0.046 -0.029,-0.069 -0.018,-0.023 -0.012,-0.045 -0.029,-0.068 -0.018,-0.023 -0.012,-0.046 -0.029,-0.069 -0.016,-0.023 -0.011,-0.046 -0.027,-0.069 -0.016,-0.023 -0.011,-0.046 -0.027,-0.069 -0.015,-0.023 -0.01,-0.046 -0.025,-0.069 -0.015,-0.023 -0.011,-0.046 -0.025,-0.069 -0.014,-0.023 -0.01,-0.046 -0.024,-0.069 -0.013,-0.023 -0.009,-0.045 -0.022,-0.068 -0.013,-0.023 -0.008,-0.046 -0.021,-0.069 -0.012,-0.023 -0.008,-0.046 -0.02,-0.069 -0.012,-0.023 -0.007,-0.046 -0.018,-0.069 -0.011,-0.023 -0.006,-0.046 -0.017,-0.069 -0.01,-0.023 -0.005,-0.046 -0.015,-0.069 -0.01,-0.023 -0.004,-0.046 -0.014,-0.069 -0.009,-0.023 -0.003,-0.046 -0.012,-0.068 -0.009,-0.023 -0.002,-0.046 -0.011,-0.069 -0.008,-0.023 -0.001,-0.046 -0.009,-0.069 -0.007,-0.023 0,-0.046 -0.007,-0.069 -0.007,-0.023 0,-0.046 -0.006,-0.069 -0.006,-0.023 0.002,-0.046 -0.004,-0.069 -0.006,-0.023 0.002,-0.046 -0.003,-0.069 -0.005,-0.023 0.004,-0.046 -0.001,-0.068 -0.004,-0.023 0.005,-0.046 0.001,-0.069 -0.004,-0.023 0.005,-0.046 0.002,-0.069 -0.003,-0.023 0.006,-0.046 0.004,-0.069 -0.003,-0.023 0.007,-0.046 0.005,-0.069 -0.002,-0.023 0.008,-0.046 0.006,-0.069 -0.001,-0.023 0.009,-0.046 0.008,-0.069 -10e-4,-0.023 0.01,-0.046 0.01,-0.069 0,-0.022 0.01,-0.045 0.01,-0.068 10e-4,-0.023 0.012,-0.046 0.012,-0.069 10e-4,-0.023 0.012,-0.046 0.014,-0.069 0.001,-0.023 0.012,-0.046 0.014,-0.069 0.002,-0.023 0.013,-0.046 0.016,-0.069 0.002,-0.023 0.013,-0.046 0.016,-0.069 0.003,-0.023 0.013,-0.046 0.017,-0.069 0.005,-0.022 0.014,-0.045 0.019,-0.068 0.005,-0.023 0.014,-0.046 0.019,-0.069 0.005,-0.023 0.014,-0.046 0.02,-0.069 0.006,-0.023 0.014,-0.046 0.021,-0.069 0.006,-0.023 0.014,-0.046 0.021,-0.069 0.007,-0.023 0.014,-0.046 0.022,-0.069 0.007,-0.023 0.013,-0.046 0.022,-0.069 0.008,-0.023 0.013,-0.045 0.022,-0.068 0.009,-0.023 0.014,-0.046 0.023,-0.069 0.01,-0.023 0.013,-0.046 0.023,-0.069 0.011,-0.023 0.013,-0.046 0.024,-0.069 0.011,-0.023 0.012,-0.046 0.023,-0.069 0.012,-0.023 0.012,-0.046 0.024,-0.069 0.012,-0.023 0.01,-0.046 0.023,-0.069 0.013,-0.023 0.01,-0.045 0.023,-0.068 0.014,-0.023 0.01,-0.046 0.024,-0.069 0.013,-0.023 0.008,-0.046 0.022,-0.069 0.015,-0.023 0.008,-0.046 0.023,-0.069 0.015,-0.023 0.007,-0.046 0.022,-0.069 0.016,-0.023 0.006,-0.046 0.022,-0.069 0.016,-0.023 0.004,-0.046 0.021,-0.069 0.017,-0.023 0.004,-0.046 0.021,-0.068 0.017,-0.023 0.002,-0.046 0.02,-0.069 0.018,-0.023 0.001,-0.046 0.02,-0.069 0.018,-0.023 -0.001,-0.046 0.019,-0.069 0.019,-0.023 -0.002,-0.046 0.018,-0.069 0.02,-0.023 -0.003,-0.046 0.017,-0.069 0.021,-0.023 -0.004,-0.046 0.017,-0.069 0.021,-0.023 -0.006,-0.046 0.016,-0.068 0.021,-0.023 -0.008,-0.046 0.015,-0.069 0.022,-0.023 -0.009,-0.046 0.014,-0.069 0.022,-0.023 -0.01,-0.046 0.013,-0.069 0.023,-0.023 -0.012,-0.046 0.012,-0.069 0.024,-0.023 -0.013,-0.046 0.011,-0.069 0.025,-0.023 -0.014,-0.046 0.011,-0.069 0.025,-0.023 -0.016,-0.046 0.009,-0.069 0.026,-0.022 -0.017,-0.045 0.009,-0.068 0.026,-0.023 -0.019,-0.046 0.007,-0.069 0.027,-0.023 -0.02,-0.046 0.007,-0.069 0.027,-0.023 -0.022,-0.046 0.006,-0.069 0.027,-0.023 -0.024,-0.046 0.004,-0.069 0.029,-0.023 -0.025,-0.046 0.004,-0.069 0.029,-0.023 -0.026,-0.046 0.003,-0.069 0.029,-0.022 -0.028,-0.045 0.002,-0.068 0.03,-0.023 -0.03,-0.046 10e-4,-0.069 0.03,-0.023 -0.031,-0.046 0,-0.069 0.031,-0.023 -0.032,-0.046 -10e-4,-0.069 0.032,-0.023 -0.033,-0.046 -0.001,-0.069 0.032,-0.023 -0.035,-0.046 -0.002,-0.069 0.032,-0.023 -0.036,-0.046 -0.003,-0.069 0.033,-0.023 -0.038,-0.045 -0.004,-0.068 0.034,-0.023 -0.039,-0.046 -0.004,-0.069 0.034,-0.023 -0.04,-0.046 -0.005,-0.069 0.034,-0.023 -0.041,-0.046 -0.006,-0.069 0.035,-0.023 -0.042,-0.046 -0.006,-0.069 0.035,-0.023 -0.043,-0.046 -0.007,-0.069 0.036,-0.023 -0.044,-0.046 -0.007,-0.069 0.036,-0.023 -0.045,-0.045 -0.008,-0.068 0.037,-0.023 -0.046,-0.046 -0.008,-0.069 0.037,-0.023 -0.047,-0.046 -0.009,-0.069 0.038,-0.023 -0.047,-0.046 -0.009,-0.069 0.039,-0.023 -0.048,-0.046 -0.009,-0.069 0.039,-0.023 -0.049,-0.046 -0.009,-0.069 0.039,-0.023 -0.05,-0.046 -0.01,-0.069 0.04,-0.023 -0.05,-0.046 -0.009,-0.068 0.04,-0.023 -0.051,-0.046 -0.01,-0.069 0.041,-0.023 -0.052,-0.046 -0.01,-0.069 0.041,-0.023 -0.052,-0.046 -0.01,-0.069 0.042,-0.023 -0.052,-0.046 -0.01,-0.069 0.042,-0.023 -0.053,-0.046 -0.01,-0.069 0.043,-0.023 -0.053,-0.046 -0.01,-0.069 0.044,-0.023 -0.053,-0.046 -0.009,-0.068 0.043,-0.023 -0.054,-0.046 -0.01,-0.069 0.044,-0.023 -0.054,-0.046 -0.009,-0.069 0.045,-0.023 -0.054,-0.046 -0.009,-0.069 0.045,-0.023 -0.054,-0.046 -0.009,-0.069 0.046,-0.023 -0.054,-0.046 -0.008,-0.069 0.046,-0.023 -0.054,-0.046 -0.008,-0.069 0.046,-0.023 -0.055,-0.046 -0.008,-0.069 0.047,-0.022 -0.054,-0.045 -0.007,-0.068 0.047,-0.023 -0.055,-0.046 -0.007,-0.069 0.047,-0.023 -0.054,-0.046 -0.006,-0.069 0.047,-0.023 -0.055,-0.046 -0.006,-0.069 0.048,-0.023 -0.055,-0.046 -0.006,-0.069 0.049,-0.023 -0.054,-0.046 -0.005,-0.069 0.049,-0.023 -0.054,-0.046 -0.004,-0.069 0.049,-0.022 -0.054,-0.045 -0.004,-0.068 0.049,-0.023 -0.054,-0.046 -0.004,-0.069 0.05,-0.023 -0.053,-0.046 -0.003,-0.069 0.051,-0.023 -0.053,-0.046 -0.002,-0.069 0.051,-0.023 -0.053,-0.046 -0.002,-0.069 0.051,-0.023 -0.053,-0.046 -10e-4,-0.069 0.051,-0.023 -0.053,-0.046 -0.001,-0.069 0.052,-0.023 -0.052,-0.045 0,-0.068 0.052,-0.023 -0.052,-0.046 0,-0.069 0.053,-0.023 -0.052,-0.046 0.001,-0.069 0.053,-0.023 -0.051,-0.046 0.002,-0.069 0.053,-0.023 -0.052,-0.046 0.002,-0.069 0.053,-0.023 -0.051,-0.046 0.002,-0.069 0.054,-0.023 -0.051,-0.046 0.003,-0.069 0.055,-0.023 -0.05,-0.045 0.004,-0.068 0.054,-0.023 -0.051,-0.046 0.004,-0.069 0.055,-0.023 -0.051,-0.046 0.004,-0.069 0.055,-0.023 -0.05,-0.046 0.005,-0.069 0.056,-0.023 -0.05,-0.046 0.006,-0.069 0.055,-0.023 -0.051,-0.046 0.005,-0.069 0.056,-0.023 -0.05,-0.046 0.006,-0.069 0.056,-0.023 -0.05,-0.046 0.007,-0.068 0.056,-0.023 -0.05,-0.046 0.006,-0.069 0.057,-0.023 -0.049,-0.046 0.008,-0.069 0.056,-0.023 -0.05,-0.046 0.007,-0.069 0.057,-0.023 -0.05,-0.046 0.007,-0.069 0.058,-0.023 -0.049,-0.046 0.008,-0.069 0.058,-0.023 -0.05,-0.046 0.008,-0.069 0.058,-0.023 -0.05,-0.046 0.008,-0.068 0.058,-0.023 -0.05,-0.046 0.009,-0.069 0.058,-0.023 -0.05,-0.046 0.008,-0.069 0.058,-0.023 -0.05,-0.046 0.008,-0.069 0.059,-0.023 -0.05,-0.046 0.009,-0.069 0.059,-0.023 -0.05,-0.046 0.009,-0.069 0.059,-0.023 -0.051,-0.046 0.008,-0.069 0.059,-0.023 -0.051,-0.046 0.009,-0.069 0.059,-0.022 -0.051,-0.045 0.008,-0.068 0.06,-0.023 -0.051,-0.046 0.009,-0.069 0.059,-0.023 -0.052,-0.046 0.008,-0.069 0.06,-0.023 -0.052,-0.046 0.008,-0.069 0.06,-0.023 -0.052,-0.046 0.008,-0.069 0.06,-0.023 -0.053,-0.046 0.008,-0.069 0.06,-0.023 -0.053,-0.046 0.007,-0.069 0.061,-0.022 -0.053,-0.045 0.008,-0.068 0.06,-0.023 -0.054,-0.046 0.007,-0.069 0.06,-0.023 -0.054,-0.046 0.007,-0.069 0.06,-0.023 -0.055,-0.046 0.006,-0.069 0.061,-0.023 -0.054,-0.046 0.007,-0.069 0.061,-0.023 -0.055,-0.046 0.006,-0.069 0.061,-0.023 -0.056,-0.046 0.005,-0.069 0.061,-0.023 -0.056,-0.045 0.006,-0.068 0.061,-0.023 -0.057,-0.046 0.005,-0.069 0.061,-0.023 -0.057,-0.046 0.004,-0.069 0.062,-0.023 -0.057,-0.046 0.004,-0.069 0.062,-0.023 -0.057,-0.046 0.004,-0.069 0.062,-0.023 -0.058,-0.046 0.004,-0.069 0.061,-0.023 -0.059,-0.046 0.003,-0.069 0.061,-0.023 -0.059,-0.045 0.002,-0.068 0.062,-0.023 -0.059,-0.046 0.003,-0.069 0.061,-0.023 -0.06,-0.046 0.002,-0.069 0.061,-0.023 -0.061,-0.046 10e-4,-0.069 0.062,-0.023 -0.061,-0.046 0.001,-0.069 0.062,-0.023 -0.061,-0.046 10e-4,-0.069 0.062,-0.023 -0.062,-0.046 0,-0.069 0.062,-0.023 -0.062,-0.046 0,-0.068 0.062,-0.023 -0.062,-0.046 0,-0.069 0.061,-0.023 -0.063,-0.046 -10e-4,-0.069 0.062,-0.023 -0.063,-0.046 -0.001,-0.069 0.061,-0.023 -0.063,-0.046 -0.002,-0.069 0.062,-0.023 -0.063,-0.046 -0.002,-0.069 0.062,-0.023 -0.063,-0.046 -0.002,-0.069 0.062,-0.023 -0.064,-0.046 -0.002,-0.068 0.061,-0.023 -0.064,-0.046 -0.003,-0.069 0.062,-0.023 -0.064,-0.046 -0.003,-0.069 0.062,-0.023 -0.065,-0.046 -0.003,-0.069 0.061,-0.023 -0.065,-0.046 -0.004,-0.069 0.062,-0.023 -0.065,-0.046 -0.003,-0.069 0.061,-0.023 -0.065,-0.046 -0.004,-0.069 0.061,-0.023 -0.066,-0.046 -0.004,-0.069 0.061,-0.022 -0.066,-0.045 -0.005,-0.068 0.061,-0.023 -0.065,-0.046 -0.004,-0.069 0.061,-0.023 -0.065,-0.046 -0.005,-0.069 0.061,-0.023 -0.065,-0.046 -0.004,-0.069 0.06,-0.023 -0.066,-0.046 -0.005,-0.069 0.061,-0.023 -0.065,-0.046 -0.005,-0.069 0.061,-0.023 -0.065,-0.046 -0.005,-0.069 0.061,-0.022 -0.065,-0.045 -0.005,-0.068 0.061,-0.023 -0.065,-0.046 -0.005,-0.069 0.061,-0.023 -0.064,-0.046 -0.004,-0.069 0.06,-0.023 -0.065,-0.046 -0.005,-0.069 0.06,-0.023 -0.065,-0.046 -0.005,-0.069 0.06,-0.023 -0.064,-0.046 -0.005,-0.069 0.06,-0.023 -0.064,-0.046 -0.004,-0.069 0.059,-0.023 -0.064,-0.045 -0.005,-0.068 0.059,-0.023 -0.063,-0.046 -0.004,-0.069 0.058,-0.023 -0.063,-0.046 -0.005,-0.069 0.059,-0.023 -0.062,-0.046 -0.004,-0.069 0.059,-0.023 -0.062,-0.046 -0.004,-0.069 0.058,-0.023 -0.062,-0.046 -0.004,-0.069 0.058,-0.023 -0.061,-0.046 -0.003,-0.069 0.058,-0.023 -0.061,-0.045 -0.004,-0.068 0.058,-0.023 -0.06,-0.046 -0.003,-0.069 0.058,-0.023 -0.06,-0.046 -0.003,-0.069 0.057,-0.023 -0.06,-0.046 -0.003,-0.069 0.057,-0.023 -0.059,-0.046 -0.002,-0.069 0.057,-0.023 -0.059,-0.046 -0.002,-0.069 0.056,-0.023 -0.058,-0.046 -0.002,-0.069 0.056,-0.023 -0.058,-0.046 -0.002,-0.068 0.056,-0.023 -0.057,-0.046 -0.001,-0.069 0.055,-0.023 -0.057,-0.046 -10e-4,-0.069 0.055,-0.023 -0.057,-0.046 -0.001,-0.069 0.055,-0.023 -0.056,-0.046 -0.001,-0.069 0.055,-0.023 -0.055,-0.046 0,-0.069 0.054,-0.023 -0.055,-0.046 0,-0.069 0.054,-0.023 -0.054,-0.046 0,-0.068 0.054,-0.023 -0.053,-0.046 0,-0.069 0.054,-0.023 -0.052,-0.046 0.001,-0.069 0.054,-0.023 -0.052,-0.046 0.001,-0.069 0.053,-0.023 -0.051,-0.046 0.002,-0.069 0.052,-0.023 -0.051,-0.046 0.001,-0.069 0.053,-0.023 -0.05,-0.046 0.002,-0.069 0.052,-0.023 -0.05,-0.046 0.002,-0.069 0.052,-0.022 -0.049,-0.045 0.002,-0.068 0.052,-0.023 -0.048,-0.046 0.003,-0.069 0.051,-0.023 -0.048,-0.046 0.003,-0.069 0.05,-0.023 -0.048,-0.046 0.003,-0.069 0.05,-0.023 -0.047,-0.046 0.003,-0.069 0.05,-0.023 -0.047,-0.046 0.003,-0.069 0.05,-0.023 -0.046,-0.046 0.004,-0.069 0.049,-0.022 -0.046,-0.045 0.003,-0.068 0.049,-0.023 -0.044,-0.046 0.004,-0.069 0.049,-0.023 -0.044,-0.046 0.004,-0.069 0.048,-0.023 -0.044,-0.046 0.004,-0.069 0.048,-0.023 -0.043,-0.046 0.004,-0.069 0.047,-0.023 -0.043,-0.046 0.004,-0.069 0.047,-0.023 -0.042,-0.046 0.005,-0.069 0.046,-0.023 -0.042,-0.045 0.004,-0.068 0.046,-0.023 -0.041,-0.046 0.004,-0.069 0.046,-0.023 -0.041,-0.046 0.005,-0.069 0.045,-0.023 -0.041,-0.046 0.004,-0.069 0.045,-0.023 -0.04,-0.046 0.005,-0.069 0.044,-0.023 -0.04,-0.046 0.004,-0.069 0.044,-0.023 -0.039,-0.046 0.004,-0.069 0.044,-0.023 -0.039,-0.045 0.005,-0.068 0.043,-0.023 -0.039,-0.046 0.004,-0.069 0.043,-0.023 -0.038,-0.046 0.004,-0.069 0.042,-0.023 -0.038,-0.046 0.004,-0.069 0.042,-0.023 -0.037,-0.046 0.004,-0.069 0.041,-0.023 -0.037,-0.046 0.004,-0.069 0.041,-0.023 -0.037,-0.046 0.004,-0.069 0.04,-0.023 -0.037,-0.046 0.003,-0.068 0.04,-0.023 -0.036,-0.046 0.004,-0.069 0.039,-0.023 -0.036,-0.046 0.003,-0.069 0.039,-0.023 -0.035,-0.046 0.003,-0.069 0.039,-0.023 -0.035,-0.046 0.003,-0.069 0.038,-0.023 -0.034,-0.046 0.003,-0.069 0.038,-0.023 -0.034,-0.046 0.003,-0.069 0.037,-0.023 -0.034,-0.046 0.002,-0.068 0.037,-0.023 -0.034,-0.046 0.002,-0.069 0.037,-0.023 -0.033,-0.046 0.003,-0.069 0.035,-0.023 -0.034,-0.046 0.001,-0.069 0.035,-0.023 -0.033,-0.046 0.002,-0.069 0.034,-0.023 -0.033,-0.046 0.001,-0.069 0.034,-0.023 -0.032,-0.046 0.002,-0.069 0.033,-0.023 -0.033,-0.046 0,-0.069 0.033,-0.022 -0.031,-0.045 0.001,-0.068 0.033,-0.023 -0.031,-0.046 10e-4,-0.069 0.032,-0.023 -0.031,-0.046 0,-0.069 0.031,-0.023 -0.031,-0.046 0,-0.069 0.031,-0.023 -0.03,-0.046 0,-0.069 0.03,-0.023 -0.03,-0.046 0,-0.069 0.03,-0.023 -0.03,-0.046 -10e-4,-0.069 0.029,-0.022 -0.029,-0.045 -0.001,-0.068 0.029,-0.023 -0.029,-0.046 0,-0.069 0.028,-0.023 -0.029,-0.046 -0.002,-0.069 0.028,-0.023 -0.028,-0.046 -0.001,-0.069 0.027,-0.023 -0.028,-0.046 -10e-4,-0.069 0.026,-0.023 -0.028,-0.046 -0.002,-0.069 0.026,-0.023 -0.027,-0.046 -0.002,-0.069 0.026,-0.023 -0.026,-0.045 -0.002,-0.068 0.025,-0.023 -0.026,-0.046 -0.002,-0.069 0.025,-0.023 -0.026,-0.046 -0.002,-0.069 0.024,-0.023 -0.025,-0.046 -0.002,-0.069 0.023,-0.023 -0.025,-0.046 -0.003,-0.069 0.023,-0.023 -0.024,-0.046 -0.002,-0.069 0.022,-0.023 -0.024,-0.046 -0.003,-0.069 0.022,-0.023 -0.023,-0.045 -0.002,-0.068 0.02,-0.023 -0.023,-0.046 -0.003,-0.069 0.02,-0.023 -0.023,-0.046 -0.003,-0.069 0.02,-0.023 -0.022,-0.046 -0.003,-0.069 0.019,-0.023 -0.021,-0.046 -0.003,-0.069 0.019,-0.023 -0.021,-0.046 -0.003,-0.069 0.018,-0.023 -0.02,-0.046 -0.003,-0.069 0.018,-0.023 -0.019,-0.046 -0.003,-0.068 0.017,-0.023 -0.019,-0.046 -0.002,-0.069 0.016,-0.023 -0.019,-0.046 -0.003,-0.069 0.015,-0.023 -0.018,-0.046 -0.003,-0.069 0.015,-0.023 -0.017,-0.046 -0.003,-0.069 0.014,-0.023 -0.016,-0.046 -0.003,-0.069 0.014,-0.023 -0.015,-0.046 -0.002,-0.069 0.013,-0.023 -0.015,-0.046 -0.003,-0.068 0.013,-0.023 -0.014,-0.046 -0.002,-0.069 0.011,-0.023 -0.014,-0.046 -0.003,-0.069 0.011,-0.023 -0.013,-0.046 -0.002,-0.069 0.01,-0.023 -0.012,-0.046 -0.002,-0.069 0.01,-0.023 -0.012,-0.046 -0.002,-0.069 0.009,-0.023 -0.011,-0.046 -0.002,-0.069 0.008,-0.023 -0.01,-0.046 -0.002,-0.069 0.008,-0.022 -0.009,-0.045 -0.002,-0.068 0.008,-0.023 -0.008,-0.046 -0.001,-0.069 0.007,-0.023 -0.008,-0.046 -0.002,-0.069 0.007,-0.023 -0.007,-0.046 -0.001,-0.069 0.006,-0.023 -0.006,-0.046 -10e-4,-0.069 0.005,-0.023 -0.005,-0.046 -0.001,-0.069 0.005,-0.023 -0.005,-0.046 -0.001,-0.069 0.004,-0.022 -0.004,-0.045 0,-0.068 0.003,-0.023 -0.003,-0.046 -10e-4,-0.069 0.003,-0.023 -0.002,-0.046 0,-0.069 0.002,-0.023 -0.001,-0.046 0,-0.069 10e-4,-0.023 -0.001,-0.046 0,-0.069 10e-4,-0.023 0,-0.046 0,-0.069 10e-4,-0.023 10e-4,-0.046 10e-4,-0.069 -10e-4,-0.023 0.001,-0.045 0,-0.068 -10e-4,-0.023 0.003,-0.046 0.001,-0.069 -0.002,-0.023 0.003,-0.046 0.001,-0.069 -0.002,-0.023 0.004,-0.046 10e-4,-0.069 -0.003,-0.023 0.005,-0.046 0.001,-0.069 -0.003,-0.023 0.006,-0.046 0.002,-0.069 -0.004,-0.023 0.006,-0.046 0.001,-0.069 -0.005,-0.023 0.007,-0.046 0.002,-0.068 -0.006,-0.023 0.008,-0.046 0.002,-0.069 -0.006,-0.023 0.008,-0.046 10e-4,-0.069 -0.006,-0.023 0.01,-0.046 0.002,-0.069 -0.007,-0.023 0.01,-0.046 0.003,-0.069 -0.008,-0.023 0.01,-0.046 0.002,-0.069 -0.009,-0.023 0.011,-0.046 0.002,-0.069 -0.009,-0.023 0.012,-0.046 0.002,-0.068 -0.009,-0.023 0.013,-0.046 0.003,-0.069 -0.011,-0.023 0.013,-0.046 0.002,-0.069 -0.011,-0.023 0.014,-0.046 0.003,-0.069 -0.012,-0.023 0.015,-0.046 0.002,-0.069 -0.012,-0.023 0.016,-0.046 0.003,-0.069 -0.013,-0.023 0.016,-0.046 0.003,-0.069 -0.014,-0.023 0.016,-0.046 0.002,-0.069 -0.014,-0.022 0.018,-0.045 0.003,-0.068 -0.014,-0.023 0.018,-0.046 0.003,-0.069 -0.015,-0.023 0.018,-0.046 0.002,-0.069 -0.015,-0.023 0.019,-0.046 0.003,-0.069 -0.016,-0.023 0.02,-0.046 0.003,-0.069 -0.017,-0.023 0.02,-0.046 0.002,-0.069"
       title="(sin(3*x)/(3*x))**2"
       id="path10738" />
  </g>
</svg>
